<mxfile
  host="Electron" 
  agent="Mozilla/5.0 (Macintosh; Intel Mac OS X 10_15_7) AppleWebKit/537.36 (KHTML, like Gecko) draw.io/25.0.2 Chrome/128.0.6613.186 Electron/32.2.5 Safari/537.36" 
  version="25.0.2"
  >
  <diagram
    name="-"
    >
    <mxGraphModel
      grid="1" 
      gridSize="10" 
      guides="1" 
      tooltips="1" 
      connect="1" 
      arrows="1" 
      fold="1" 
      page="1" 
      pageScale="1" 
      pageWidth="1" 
      pageHeight="1" 
      math="0" 
      shadow="0"
      >
      <root>
        <mxCell
          id="page"
          />
        <mxCell
          id="root" 
          parent="page"
          />
        <mxCell
          style="verticalAlign=top;aspect=fixed;align=center;spacingLeft=5;spacingRight=5;spacingBottom=5;strokeColor=none;" 
          id="shape_" 
          parent="root" 
          value=" " 
          vertex="1"
          >
          <mxGeometry
            as="geometry" 
            width="60" 
            height="62" 
            x="0" 
            y="0"
            />
          </mxCell>
        <mxCell
          style="sketch=0;html=1;verticalAlign=top;labelPosition=center;verticalLabelPosition=bottom;align=center;spacingTop=-6;fontSize=11;fontStyle=1;fontColor=#999999;shape=image;aspect=fixed;imageAspect=0;image=data:image/svg+xml,PHN2ZyB4bWxucz0iaHR0cDovL3d3dy53My5vcmcvMjAwMC9zdmciIHhtbG5zOnY9Imh0dHBzOi8vdmVjdGEuaW8vbmFubyIgd2lkdGg9IjM2Ny4xMTQyMjUzOTM0NjQyIiBoZWlnaHQ9IjM3Ny4wNTUxMjc1Mzc1NjM3NSIgdmlld0JveD0iMC4wMDA1NTk4NjY0MjgzNzUyNDQxIC0wLjAwMDUwMzU0MDAzOTA2MjUgOTcuMTMyMzI0MjE4NzUgOTkuNzYyNTA0NTc3NjM2NzIiPiYjeGE7PHN0eWxlIHR5cGU9InRleHQvY3NzIj4mI3hhOwkuc3Qwe2ZpbGw6I2ZmYzUwYzt9JiN4YTsJLnN0MXtmaWxsOiMwMDY5YTY7fSYjeGE7PC9zdHlsZT4mI3hhOwk8cGF0aCBjbGFzcz0ic3QwIiBkPSJNLjg4NiAzOC43MjVDLS42NTMgMzUuMzIyLjEzOCAxOS4wNzQuODM5IDE3LjMwNCAxMS45NCA4LjQ3OSAyNy4xMjMtLjEzMSA0OS40MTcuMDAxYzE3LjIwMyAwIDM2LjYwNCA4LjQ1MSA0Ni42MjEgMTcuMTM3IDEuMTY5IDQuODM0IDEuNDEgMTQuMzk5LjY4NCAyMS42ODEtMTEuNzM3LTEyLjAwMS0yOC40NjYtMTkuNDYtNDguMDI5LTE5LjQ2LTIwLjk3OCAwLTM4LjM3MiA5LjEyMy00Ny44MDcgMTkuMzY2eiIvPiYjeGE7CTxwYXRoIGNsYXNzPSJzdDEiIGQ9Ik0yLjQ3NiA0OC4yMmM5LjQ1LTEwLjkzMSAyNi40NTgtMjAuNTggNDYuMzA0LTIwLjU4IDE5LjQzOSAwIDM4LjMzNCAxMC4xMDcgNDYuMTY0IDIwLjkwNy0xLjI0NyA0LjY1NS0zLjc3NSAxMS4wNDItNS40MjYgMTQuNzMzLTEwLjY2NC0xNC4zODQtMjcuMjkyLTIxLjM3Mi00MS4zMzYtMjEuMzcyLTExLjAwNC41NDUtMTkuMzA0IDEuMjQ2LTMwLjkyMSAxMi4xNiA1Ljc2OCAyMS4wNCAyOC4xMzIgMzUuMTI4IDQxLjIyNyA0MC43MjEtMi45MDcgMS43MjEtNi40ODMgMy40OS0xMC4wODIgNC45NzMtMjQuMDItOS4yNTUtNDEuMTgtMjguMzgxLTQ1LjkzLTUxLjU0M3oiLz4mI3hhOzwvc3ZnPg;strokeColor=none;" 
          id="forseti_security_" 
          parent="shape_" 
          value=" " 
          vertex="1"
          >
          <mxGeometry
            width="40" 
            height="42" 
            as="geometry" 
            x="10" 
            y="10"
            />
          </mxCell>
        </root>
      </mxGraphModel>
    </diagram>
  </mxfile>